<svg aria-hidden="true" style="position: absolute; width: 0; height: 0; overflow: hidden;" version="1.1" xmlns="http://www.w3.org/2000/svg" xmlns:xlink="http://www.w3.org/1999/xlink">
<defs>
<symbol id="icon-loader" viewBox="0 0 32 32">
<path d="M15.287 2.25c-1.063 0.55-1.688 1.563-1.688 2.775 0 1.888 1.8 3.388 3.6 2.987 2.7-0.612 3.35-3.975 1.063-5.575-0.462-0.325-0.663-0.375-1.488-0.413-0.787-0.025-1.063 0.013-1.488 0.225z"></path>
<path d="M7.088 5.175c-2.487 0.888-3.263 3.712-1.55 5.65 1.638 1.863 4.6 1.488 5.712-0.738 0.738-1.463 0.425-3.1-0.8-4.175-0.963-0.85-2.25-1.125-3.362-0.737z"></path>
<path d="M24.2 6.050c-1.788 0.662-2.262 3.050-0.875 4.35 1.438 1.35 3.775 0.675 4.3-1.225 0.2-0.688 0.1-1.287-0.313-2-0.625-1.063-1.962-1.55-3.113-1.125z"></path>
<path d="M2.9 13.5c-1.413 0.713-2.15 1.912-2.15 3.512 0 1.625 0.825 2.887 2.35 3.587 0.587 0.262 0.8 0.3 1.7 0.25 1.587-0.087 2.638-0.75 3.325-2.125 0.325-0.65 0.375-0.9 0.375-1.725s-0.050-1.075-0.375-1.725c-0.713-1.412-1.912-2.15-3.513-2.15-0.813 0-1.063 0.050-1.712 0.375z"></path>
<path d="M27.95 14.65c-0.288 0.088-0.7 0.35-1.012 0.65-0.938 0.938-1 2.238-0.163 3.25 0.512 0.625 1.025 0.863 1.85 0.863s1.337-0.238 1.85-0.863c0.837-1.012 0.775-2.313-0.163-3.238-0.35-0.35-0.7-0.563-1.087-0.662-0.663-0.175-0.613-0.175-1.275 0z"></path>
<path d="M24.288 23.762c-1.225 0.6-1.5 2.125-0.55 3.038 1.313 1.25 3.262 0.425 3.262-1.387 0-0.563-0.063-0.725-0.4-1.113-0.425-0.488-1.025-0.8-1.5-0.8-0.163 0-0.525 0.113-0.813 0.262z"></path>
<path d="M7.237 24.613c-0.638 0.65-0.338 1.887 0.5 2.075 0.925 0.2 1.638-0.325 1.638-1.212 0-1.113-1.338-1.65-2.138-0.863z"></path>
<path d="M15.563 27.938c-0.387 0.387-0.438 0.525-0.438 1.063s0.050 0.675 0.438 1.063c0.387 0.387 0.525 0.438 1.063 0.438s0.675-0.050 1.063-0.438c0.387-0.387 0.438-0.525 0.438-1.063s-0.050-0.675-0.438-1.063c-0.387-0.387-0.525-0.438-1.063-0.438s-0.675 0.050-1.063 0.438z"></path>
</symbol>
</defs>
</svg>
